<svg xmlns="http://www.w3.org/2000/svg" width="46" height="23" viewBox="0 0 46 23">
  <g id="Group_23" data-name="Group 23" transform="translate(-8 -475)">
    <g id="Group_20" data-name="Group 20" transform="translate(-24 -25)">
      <g id="Group_19" data-name="Group 19" transform="translate(1 -1)">
        <g id="Path_99" data-name="Path 99" transform="translate(31 501)">
          <path id="Path_117" data-name="Path 117" d="M0,0H46V23H0Z" fill="none"/>
          <path id="Path_118" data-name="Path 118" d="M1,1V22H45V1H1M0,0H46V23H0Z" fill="#adafbc"/>
        </g>
        <g id="Group_21" data-name="Group 21">
          <g id="Rectangle_2" data-name="Rectangle 2" transform="translate(31 501)" fill="none" stroke="#adafbc" stroke-width="1">
            <rect width="46" height="2" stroke="none"/>
            <rect x="0.5" y="0.5" width="45" height="1" fill="none"/>
          </g>
          <g id="Rectangle_3" data-name="Rectangle 3" transform="translate(31 502)" fill="none" stroke="#adafbc" stroke-width="1">
            <rect width="46" height="2" stroke="none"/>
            <rect x="0.5" y="0.5" width="45" height="1" fill="none"/>
          </g>
          <g id="Rectangle_4" data-name="Rectangle 4" transform="translate(31 503)" fill="none" stroke="#adafbc" stroke-width="1">
            <rect width="46" height="2" stroke="none"/>
            <rect x="0.5" y="0.5" width="45" height="1" fill="none"/>
          </g>
        </g>
      </g>
    </g>
    <g id="Path_100" data-name="Path 100" transform="translate(19 482)">
      <path id="Path_119" data-name="Path 119" d="M12,0c6.627,0,12,2.686,12,6s-5.373,6-12,6S0,9.314,0,6,5.373,0,12,0Z" fill="none"/>
      <path id="Path_120" data-name="Path 120" d="M12,3A16.651,16.651,0,0,0,4.856,4.441C3.323,5.207,3,5.9,3,6s.323.793,1.856,1.559A16.651,16.651,0,0,0,12,9a16.651,16.651,0,0,0,7.144-1.441C20.677,6.793,21,6.1,21,6s-.323-.793-1.856-1.559A16.651,16.651,0,0,0,12,3m0-3c6.627,0,12,2.686,12,6s-5.373,6-12,6S0,9.314,0,6,5.373,0,12,0Z" fill="#adafbc"/>
    </g>
  </g>
</svg>
