<svg xmlns="http://www.w3.org/2000/svg" width="131" height="120" viewBox="0 0 131 120">
  <g id="Path_116" data-name="Path 116" fill="#adafbc">
    <path d="M 65.50000762939453 119.3950729370117 C 48.93596649169922 108.1028442382813 35.26665878295898 96.70549011230469 24.8673210144043 85.51559448242188 C 15.46948719024658 75.40334320068359 8.683112144470215 65.40827941894531 4.696715831756592 55.80805206298828 C 1.511111855506897 48.13367462158203 0.1278826296329498 40.75159072875977 0.5854659676551819 33.86688232421875 C 1.000174283981323 27.62723731994629 2.904111862182617 21.92667579650879 6.244382858276367 16.92350959777832 C 9.624632835388184 11.86048793792725 14.43711185455322 7.659467220306396 20.16156959533691 4.774592399597168 C 25.71059036254883 1.978134036064148 31.91934013366699 0.5000090599060059 38.11659240722656 0.5000090599060059 C 43.31215286254883 0.5000090599060059 48.24650573730469 1.514613151550293 52.7825927734375 3.515634059906006 C 57.6107177734375 5.645488262176514 61.75923538208008 8.805383682250977 65.11289978027344 12.90757179260254 L 65.50000762939453 13.3810510635376 L 65.88711547851563 12.90757179260254 C 69.24008941650391 8.806217193603516 73.38869476318359 5.64655065536499 78.2176513671875 3.516300678253174 C 82.75467681884766 1.514842391014099 87.68894195556641 0.5000090599060059 92.88339996337891 0.5000090599060059 C 99.08132171630859 0.5000090599060059 105.2904663085938 1.977988243103027 110.8395919799805 4.774196624755859 C 116.5642776489258 7.65884256362915 121.376823425293 11.85965442657471 124.7569427490234 16.92250823974609 C 128.0970916748047 21.92546653747559 130.0008392333984 27.6259880065918 130.4153442382813 33.86573791503906 C 130.8726806640625 40.75054931640625 129.4891815185547 48.13302993774414 126.3032760620117 55.80811309814453 C 122.3168792724609 65.40830230712891 115.5305099487305 75.40336608886719 106.1326751708984 85.51559448242188 C 95.73333740234375 96.70549011230469 82.06404876708984 108.1028442382813 65.50000762939453 119.3950729370117 Z" stroke="none"/>
    <path d="M 65.50000762939453 118.7897338867188 C 81.90607452392578 107.5816802978516 95.45163726806641 96.27413177490234 105.7664260864258 85.17521667480469 C 115.1237182617188 75.10659027099609 121.8779449462891 65.16155242919922 125.8414840698242 55.61642456054688 C 128.9976043701172 48.0130500793457 130.3686370849609 40.70621871948242 129.9164428710938 33.89888381958008 C 129.5078125 27.74761390686035 127.6320114135742 22.12934303283691 124.3411102294922 17.20013427734375 C 121.0088424682617 12.20898818969727 116.2622985839844 8.066571235656738 110.6145935058594 5.220696449279785 C 105.1349029541016 2.459509134292603 99.00354766845703 1.000009059906006 92.88339996337891 1.000009059906006 C 87.75888061523438 1.000009059906006 82.89250946044922 2.000529766082764 78.41946411132813 3.973758935928345 C 73.66317749023438 6.071946620941162 69.57692718505859 9.184196472167969 66.27421569824219 13.22402954101563 L 65.50000762939453 14.17103004455566 L 64.72579956054688 13.22402954101563 C 61.42240524291992 9.183341979980469 57.33623504638672 6.070884227752686 52.5807991027832 3.973092317581177 C 48.10869598388672 2.000300645828247 43.24223709106445 1.000009059906006 38.11659240722656 1.000009059906006 C 31.99709129333496 1.000009059906006 25.86615371704102 2.459634065628052 20.3865909576416 5.221092224121094 C 14.73911190032959 8.06717586517334 9.992611885070801 12.20980072021484 6.660236835479736 17.20113372802734 C 3.369174242019653 22.13055038452148 1.493195176124573 27.7488842010498 1.084361791610718 33.90005111694336 C 0.6319242715835571 40.70726013183594 2.002674341201782 48.01371765136719 5.158486843109131 55.61630249023438 C 9.122049331665039 65.16155242919922 15.8762788772583 75.10659027099609 25.23357009887695 85.17521667480469 C 35.54837417602539 96.27413177490234 49.09394454956055 107.5816802978516 65.50000762939453 118.7897338867188 M 65.50000762939453 120.0000076293945 C 30.28107070922852 96.03994750976563 11.81013298034668 74.24271392822266 4.234945297241211 55.99980163574219 C -9.98812198638916 21.73533248901367 14.23197460174561 7.161458142945776e-06 38.11659622192383 7.161458142945776e-06 C 48.3106689453125 7.161458142945776e-06 58.44220733642578 3.958080291748047 65.50000762939453 12.59109210968018 C 72.55636596679688 3.959841966629028 82.69144439697266 7.161458142945776e-06 92.88340759277344 7.161458142945776e-06 C 116.7700500488281 7.161458142945776e-06 140.9893798828125 21.73234939575195 126.7650680541992 55.99980163574219 C 119.1898651123047 74.24271392822266 100.7189483642578 96.03994750976563 65.50000762939453 120.0000076293945 Z" stroke="none" fill="#adafbc"/>
  </g>
</svg>
