<svg xmlns="http://www.w3.org/2000/svg" width="88" height="99" viewBox="0 0 88 99">
  <g id="Group_30" data-name="Group 30" transform="translate(-38 -186)">
    <rect id="Rectangle_6" data-name="Rectangle 6" width="88" height="99" transform="translate(38 186)" fill="#fff"/>
    <path id="Cup" d="M17.286,127.631a41.182,41.182,0,0,1-9.436-1.055,18.137,18.137,0,0,1-2.7-.835l2.181,3.726.853,11.641c0,1.305,4.146,2.363,9.26,2.363s9.26-1.058,9.26-2.363l.675-11.768,2.063-3.61a17.949,17.949,0,0,1-2.723.845A41.182,41.182,0,0,1,17.286,127.631ZM29.515,89.75a91.964,91.964,0,0,1-12.069.7,91.964,91.964,0,0,1-12.069-.7,22.613,22.613,0,0,1-3.762-.783,5.445,5.445,0,0,1-.925-.384l2,18.416q.139-.476.311-.95a18,18,0,0,1,.815-1.9A16.8,16.8,0,0,1,4.824,102.4a13.545,13.545,0,0,1,1.159-1.519A9.255,9.255,0,0,1,7.245,99.69a6,6,0,0,1,1.306-.781,3.312,3.312,0,0,1,1.307-.281,2.818,2.818,0,0,1,1.442.408,4.134,4.134,0,0,1,1.3,1.319,1.055,1.055,0,0,1,.176.412,2.248,2.248,0,0,1,.037.393,1.048,1.048,0,0,1-.209.689.626.626,0,0,1-.5.252.634.634,0,0,1-.488-.276,5.238,5.238,0,0,1-.5-.791,1.911,1.911,0,0,0-.577-.674,1.216,1.216,0,0,0-.684-.209,2.113,2.113,0,0,0-1.225.475,7.114,7.114,0,0,0-1.29,1.256,13.764,13.764,0,0,0-1.225,1.785,18.633,18.633,0,0,0-1.036,2.057,14.691,14.691,0,0,0-.717,2.077A7.379,7.379,0,0,0,4.1,109.64a4.4,4.4,0,0,0,.037.558,1.882,1.882,0,0,0,.139.519,1.044,1.044,0,0,0,.278.383.662.662,0,0,0,.446.15,1.505,1.505,0,0,0,.688-.2,5.171,5.171,0,0,0,.8-.533,10.034,10.034,0,0,0,.832-.747q.418-.417.778-.844t.639-.82a4.849,4.849,0,0,0,.418-.684l.762-2.28a1.072,1.072,0,0,1,.365-.524.806.806,0,0,1,.463-.155.717.717,0,0,1,.229.039.56.56,0,0,1,.348.335.807.807,0,0,1,.053.305,4.433,4.433,0,0,1-.082.873,6.939,6.939,0,0,1-.209.8q-.127.388-.283.781t-.3.82a1.862,1.862,0,0,0-.119.305q-.086.258-.209.645t-.266.868q-.144.48-.295.98t-.291.98q-.139.48-.25.868t-.184.65c-.049.175-.079.278-.09.311a2.02,2.02,0,0,1-.131.344,2.274,2.274,0,0,1-.213.359,1.309,1.309,0,0,1-.27.281.5.5,0,0,1-.3.112.427.427,0,0,1-.381-.174,1.219,1.219,0,0,1-.119-.64v-.136a1.378,1.378,0,0,1,.008-.145,3.442,3.442,0,0,1,.123-.583q.115-.427.274-.965t.344-1.116q.184-.577.332-1.033-.435.485-.942.965a10.161,10.161,0,0,1-1.04.863,6.169,6.169,0,0,1-1.073.626,2.54,2.54,0,0,1-1.04.243,1.861,1.861,0,0,1-.987-.252c-.05-.031-.1-.065-.143-.1L4.344,124.34c.29.727,5.747,2.511,12.942,2.511s12.657-1.787,12.942-2.513l1.6-13.879c-.132.121-.261.24-.384.355a16.773,16.773,0,0,1-1.3,1.1,5.859,5.859,0,0,1-1.192.713,3.092,3.092,0,0,1-1.245.252,1.507,1.507,0,0,1-.963-.272.9.9,0,0,1-.34-.747v-.073a.492.492,0,0,1,.008-.083,1.763,1.763,0,0,1,.254-.669,7.693,7.693,0,0,1,.532-.786q.311-.408.664-.825t.651-.791a7.639,7.639,0,0,0,.5-.684,1.028,1.028,0,0,0,.2-.5.228.228,0,0,0-.082-.185.429.429,0,0,0-.27-.068,1.537,1.537,0,0,0-.676.17,3.357,3.357,0,0,0-.688.456,6.235,6.235,0,0,0-.664.655,9.663,9.663,0,0,0-.606.766q-.283.4-.516.8t-.4.742l-.139.3q-.09.194-.2.437t-.225.5q-.119.258-.217.485l-.176.407q-.078.179-.111.248-.041.087-.135.33t-.217.568l-.258.684q-.135.358-.254.679l-.209.563c-.06.161-.1.272-.115.33a3.541,3.541,0,0,1-.192.476,1.958,1.958,0,0,1-.254.393,1.162,1.162,0,0,1-.328.271.838.838,0,0,1-.413.1.807.807,0,0,1-.488-.141.632.632,0,0,1-.192-.538,1.692,1.692,0,0,1,.049-.4,3.545,3.545,0,0,1,.123-.4c.049-.133.1-.262.152-.388s.1-.247.143-.364q.443-.97.9-1.945t.881-1.931c.058-.133.112-.263.169-.4l-.051.051a10.875,10.875,0,0,1-1.061.907,5.627,5.627,0,0,1-1.048.626,2.474,2.474,0,0,1-1.012.233,1.306,1.306,0,0,1-.561-.107.936.936,0,0,1-.36-.291,1.163,1.163,0,0,1-.193-.437c-.013-.057-.021-.118-.029-.177-.1.075-.193.147-.29.216a5.88,5.88,0,0,1-1,.577,2.211,2.211,0,0,1-.884.218.837.837,0,0,1-.639-.262,1.292,1.292,0,0,1-.245-.892,4.892,4.892,0,0,1,.131-1.038,5.305,5.305,0,0,1-.532.766,4.669,4.669,0,0,1-.729.709,3.643,3.643,0,0,1-.918.519,3.009,3.009,0,0,1-1.106.2,1.977,1.977,0,0,1-.52-.068,1.09,1.09,0,0,1-.438-.233,1.169,1.169,0,0,1-.3-.441,1.822,1.822,0,0,1-.115-.694q0-.01.033-.3a6.323,6.323,0,0,1,.209-.9q.176-.616.544-1.6t1.041-2.377a1.31,1.31,0,0,1,.4-.529.825.825,0,0,1,.487-.16.9.9,0,0,1,.238.034.768.768,0,0,1,.23.107.577.577,0,0,1,.172.184.5.5,0,0,1,.065.257.674.674,0,0,1-.025.184,2.212,2.212,0,0,1-.176.432q-.135.267-.316.611t-.381.742q-.2.4-.373.825a8.232,8.232,0,0,0-.295.868,3.741,3.741,0,0,0-.139.859.64.64,0,0,0,.082.32.286.286,0,0,0,.27.145,1.71,1.71,0,0,0,1.016-.349,4.514,4.514,0,0,0,.893-.868,8.337,8.337,0,0,0,.741-1.116q.332-.6.553-1.091a5.533,5.533,0,0,0,.274-.708,7.043,7.043,0,0,1,.258-.7,2.152,2.152,0,0,1,.319-.534.566.566,0,0,1,.45-.213.559.559,0,0,1,.467.223.849.849,0,0,1,.172.534,1.519,1.519,0,0,1-.111.481q-.111.306-.279.7t-.364.839q-.2.447-.364.907a8.99,8.99,0,0,0-.279.9,3.379,3.379,0,0,0-.111.82.314.314,0,0,0,.36.35,1.571,1.571,0,0,0,.631-.175,4.312,4.312,0,0,0,.79-.49c.069-.052.138-.107.207-.165a6.735,6.735,0,0,1,.272-.878q.287-.757.582-1.5t.541-1.368l2.482-6.258a1.048,1.048,0,0,1,.4-.534.949.949,0,0,1,.5-.155.729.729,0,0,1,.463.165.639.639,0,0,1,.209.534,1.092,1.092,0,0,1-.07.369,4.462,4.462,0,0,1-.176.417q-.2.456-.487,1.116t-.606,1.436q-.324.776-.664,1.615t-.664,1.635q-.323.8-.606,1.509t-.487,1.237a5.447,5.447,0,0,0-.176.519,1.911,1.911,0,0,0-.086.529.474.474,0,0,0,.049.233.2.2,0,0,0,.188.088,1.06,1.06,0,0,0,.43-.121,4.393,4.393,0,0,0,.557-.32q.3-.2.622-.456t.643-.534q.32-.277.61-.553t.52-.509a.368.368,0,0,1,.126-.083c.092-.275.176-.545.251-.809q.065-.175.18-.495a6.8,6.8,0,0,1,.262-.631,2.7,2.7,0,0,1,.332-.538.518.518,0,0,1,.4-.228.645.645,0,0,1,.475.15.607.607,0,0,1,.147.442,1.6,1.6,0,0,1-.016.184c-.011.084-.024.173-.041.267s-.034.183-.053.267a1.222,1.222,0,0,1-.053.184q.3-.33.655-.655a6.742,6.742,0,0,1,.729-.587,4.213,4.213,0,0,1,.77-.427,2.024,2.024,0,0,1,.786-.165,1.9,1.9,0,0,1,.536.078,1.543,1.543,0,0,1,.475.228,1.192,1.192,0,0,1,.34.379,1.042,1.042,0,0,1,.131.529,2.093,2.093,0,0,1-.2.849,6.149,6.149,0,0,1-.5.907q-.3.456-.655.888t-.659.786q-.307.355-.516.6a.906.906,0,0,0-.217.335.255.255,0,0,0,.074.189.342.342,0,0,0,.246.073.944.944,0,0,0,.41-.155,6.98,6.98,0,0,0,.758-.538q.487-.383,1.237-1.029c.343-.295.744-.646,1.2-1.046L34.2,88.583a5.428,5.428,0,0,1-.926.384A22.6,22.6,0,0,1,29.515,89.75ZM17.433,84.99C8.067,84.99.474,86.037.474,87.329s7.593,2.339,16.959,2.339,16.959-1.047,16.959-2.339S26.8,84.99,17.433,84.99ZM24.2,88.013c0,.3-.9.549-2.016.549s-2.015-.246-2.015-.549.9-.549,2.015-.549S24.2,87.709,24.2,88.013Z" transform="translate(64.526 129.827)" fill="#da4648" fill-rule="evenodd"/>
    <path id="Straw" d="M103.564,19.107a.09.09,0,0,0-.015.049c0,.2.727.355,1.622.355s1.622-.159,1.622-.355l2.119-8.592,8.427-8.9.008-.008c.178-.2-.184-.826-.784-1.362s-1.249-.717-1.451-.513l0,0-8.992,9.462Z" transform="translate(-18.457 198.49)" fill="#da4648" fill-rule="evenodd"/>
  </g>
</svg>
