<svg xmlns="http://www.w3.org/2000/svg" width="153" height="155" viewBox="0 0 153 155">
  <g id="Group_31" data-name="Group 31" transform="translate(-277.81 -309.286)">
    <rect id="Rectangle_7" data-name="Rectangle 7" width="153" height="155" transform="translate(277.81 309.286)" fill="#cd6799"/>
    <path id="img-sass" d="M107.26,44.2a30.415,30.415,0,0,0-11.288,2.155c-1.161-1.893-2.321-3.579-2.526-4.816a10.7,10.7,0,0,1-.228-4.048A31.209,31.209,0,0,1,94.7,33.128c-.023-.187-.273-1.068-2.776-1.087s-4.665.394-4.916.937a19.643,19.643,0,0,0-1.047,3.054c-.432,1.874-5.007,8.564-7.624,12.068a11.8,11.8,0,0,1-1.73-3.523,10.7,10.7,0,0,1-.228-4.048,31.208,31.208,0,0,1,1.479-4.366c-.023-.187-.273-1.068-2.776-1.087s-4.665.394-4.916.937-.523,1.818-1.047,3.054-6.6,12.405-8.193,15.291c-.819,1.48-1.525,2.661-2.025,3.467h0a.8.8,0,0,1-.091.15c-.432.693-.683,1.068-.683,1.068v.019c-.341.506-.706.974-.888.974-.137,0-.387-1.349.046-3.186.91-3.879,3.072-9.913,3.05-10.119,0-.112.41-1.162-1.411-1.705a2.589,2.589,0,0,0-2.572.356c-.159,0-.273.319-.273.319s1.98-6.784-3.778-6.784c-3.6,0-8.557,3.242-11.015,6.165-1.548.693-4.847,2.174-8.375,3.767-1.343.618-2.731,1.237-4.028,1.818-.091-.075-.182-.169-.273-.244C21.645,44.3,8.764,39.968,9.31,31.741c.2-3,1.457-10.869,24.738-20.426,19.162-7.777,34.41-5.622,37.05-.843,3.778,6.821-8.17,19.489-27.969,21.325-7.556.693-11.515-1.705-12.517-2.6-1.047-.937-1.206-.993-1.593-.806-.637.281-.228,1.124,0,1.612.592,1.274,3.027,3.523,7.146,4.629,3.641.974,12.494,1.518,23.213-1.893,11.993-3.823,21.37-14.448,18.616-23.349C75.24.353,57.034-2.626,39.806,2.415c-10.241,3-21.347,7.721-29.335,13.867C.981,23.59-.521,29.942.094,32.6,2.3,42.048,18.118,48.194,24.444,52.748c-.319.15-.614.281-.865.394C20.416,54.434,8.355,59.625,5.351,65.116,1.937,71.337,5.9,75.8,8.514,76.4a21.5,21.5,0,0,0,20.96-6.99C33.957,63.9,33.411,56.739,31.34,53.46a.4.4,0,0,0-.091-.112c.819-.394,1.661-.806,2.481-1.2,1.616-.787,3.209-1.518,4.574-2.118a20.945,20.945,0,0,0-1.616,6.821c-.341,3.523,1.411,8.1,3.71,9.894a4.717,4.717,0,0,0,3,.806c2.685,0,3.892-1.836,5.234-4.01,1.639-2.661,3.118-5.753,3.118-5.753s-1.843,8.358,3.163,8.358c1.821,0,3.664-1.949,4.483-2.942v.019s.046-.056.137-.187c.182-.244.3-.394.3-.394V62.6c.728-1.049,2.367-3.429,4.8-7.383,3.141-5.1,6.167-11.468,6.167-11.468a27.786,27.786,0,0,0,1.206,4.141,35.967,35.967,0,0,0,2.594,4.8C73.874,53.535,73.419,54,73.419,54l.023.019c-.592.637-1.229,1.33-1.934,2.005-2.481,2.436-5.439,5.228-5.849,6.034a1.469,1.469,0,0,0,.546,2.211,5.9,5.9,0,0,0,3.05.412,16.519,16.519,0,0,0,4.574-.862,16.727,16.727,0,0,0,3.937-1.705c2.435-1.48,3.914-3.6,3.778-6.39a11.144,11.144,0,0,0-1.434-4.516c.228-.262.432-.525.66-.787A83.339,83.339,0,0,0,87.6,40.717,27.786,27.786,0,0,0,88.8,44.859a25.537,25.537,0,0,0,2.208,4.123,18.621,18.621,0,0,0-6.645,7.065c-1.434,3.411-.319,4.947,1.8,5.3a7.515,7.515,0,0,0,3.323-.562,16.559,16.559,0,0,0,4.21-1.78c2.435-1.48,4.779-3.542,4.643-6.334a10.24,10.24,0,0,0-1.047-3.748,28.582,28.582,0,0,1,12.084-1.143c10.833,1.049,12.972,6.615,12.562,8.957s-2.685,3.617-3.436,4.01-1,.525-.933.806c.091.412.455.394,1.092.319.888-.131,5.689-1.893,5.894-6.2C124.9,50.162,118.525,44.147,107.26,44.2ZM23.693,67.4c-3.6,3.223-8.6,4.441-10.764,3.411-2.321-1.106-1.411-5.865,3-9.276a57.987,57.987,0,0,1,8.443-5.191c.523-.262,1.3-.637,2.23-1.106.159-.075.25-.112.25-.112h0l.546-.281C29.019,59.719,27.471,64.01,23.693,67.4ZM49.865,52.748C48.613,55.259,46,61.686,44.4,61.33c-1.365-.3-2.208-5.172-.273-9.988a21.906,21.906,0,0,1,4.256-6.428c1.957-1.8,4.119-2.4,4.643-1.668C53.688,44.2,50.639,51.174,49.865,52.748Zm21.6,8.508a1.989,1.989,0,0,1-1.252.262c-.159-.075.228-.375.228-.375s2.708-2.4,3.778-3.485c.614-.637,1.343-1.387,2.116-2.23v.244C76.332,58.538,72.964,60.468,71.462,61.255Zm16.659-3.129c-.387-.225-.319-.974.979-3.317a13.066,13.066,0,0,1,3.71-3.935,4.471,4.471,0,0,1,.364,1.724C93.15,56.215,90.01,57.564,88.121,58.126Z" transform="translate(291.89 348.111)" fill="#fff"/>
  </g>
</svg>
