<svg xmlns="http://www.w3.org/2000/svg" width="183" height="96" viewBox="0 0 183 96">
  <g id="Group_28" data-name="Group 28" transform="translate(116 -77)">
    <g id="Group_26" data-name="Group 26" transform="translate(-165 3)">
      <path id="Path_105" data-name="Path 105" d="M0,0H183V96H0Z" transform="translate(49 74)" fill="#e34f26"/>
    </g>
    <g id="img-css" transform="translate(-57.134 -2.262)">
      <g id="_0170baff" data-name="#0170baff" transform="translate(0 92.448)">
        <path id="Path_111" data-name="Path 111" d="M0,92.451q32.913,0,65.825,0c-1.208,13.646-2.4,27.293-3.654,40.935q-1.121,13.079-2.331,26.153c-4.682,1.24-9.318,2.654-14,3.9-4.3,1.262-8.633,2.4-12.934,3.656H32.78c-4.093-1.217-8.226-2.288-12.319-3.506-4.831-1.3-9.619-2.754-14.452-4.051-.63-6.531-1.2-13.067-1.759-19.6C3.193,127.862,2.044,115.8,1.027,103.718.674,100.084.422,96.438,0,92.811v-.36m33.015,5.383c-.046,2.621.035,5.245-.046,7.864-7.527-.027-15.056-.006-22.584,0,.129,2.544.47,5.071.821,7.595,7,.26,14.016-.01,21.02.2-6.127,2.749-12.329,5.337-18.483,8.028a8.3,8.3,0,0,0-1.564.755c.052,2.795.5,5.574.7,8.363,3.733-.013,7.464-.073,11.2-.079,2.991-.015,5.984.044,8.976-.021-.143,4.6.044,9.2-.1,13.793-2.013-.3-4-.747-6.006-1.1-1.581-.345-3.2-.524-4.759-.977-.222-2.205-.376-4.418-.572-6.626a4.986,4.986,0,0,0-1.394-.133c-2.261.013-4.524-.008-6.788.027a126.147,126.147,0,0,0,1.252,12.683c2.23.582,4.465,1.152,6.691,1.759,3.411.928,6.865,1.7,10.282,2.614a4.317,4.317,0,0,0,1.238.2c.227,2.791.052,5.6.094,8.4a17.125,17.125,0,0,0,2.323-.557c6.468-1.757,12.928-3.546,19.392-5.32.322-2.542.472-5.1.726-7.65q1.008-11.62,2.055-23.238c.826-8.86,1.541-17.73,2.373-26.59C50.913,97.83,41.964,97.805,33.015,97.834Z" transform="translate(0 -92.448)" fill="#0170ba"/>
      </g>
      <g id="_29a9dfff" data-name="#29a9dfff" transform="translate(32.9 97.82)">
        <path id="Path_112" data-name="Path 112" d="M170.926,120.35c8.949-.029,17.9,0,26.848-.012-.832,8.86-1.547,17.73-2.373,26.59q-1.057,11.617-2.055,23.238c-.254,2.548-.4,5.108-.726,7.65-6.464,1.774-12.924,3.563-19.392,5.32a17.126,17.126,0,0,1-2.323.557c-.042-2.8.133-5.607-.094-8.4l.233-.046c6.015-1.51,11.99-3.172,17.992-4.736.759-8.513,1.6-17.023,2.134-25.554-5.1.027-10.21.012-15.314.033-.743,0-1.487,0-2.227-.054,2.747-1.414,5.636-2.535,8.456-3.8,2.706-1.227,5.445-2.377,8.161-3.581a7.56,7.56,0,0,0,1.543-.8,12.717,12.717,0,0,0,.243-2.04c.156-2.157.433-4.3.537-6.462-7.229-.058-14.457-.008-21.688-.046C170.96,125.595,170.879,122.971,170.926,120.35Z" transform="translate(-170.81 -120.336)" fill="#29a9df"/>
        <path id="Path_113" data-name="Path 113" d="M171.2,290.136c3.49-.06,6.982.035,10.474.012-.195,3.569-.491,7.132-.676,10.7-2.14.7-4.313,1.29-6.47,1.938a25.145,25.145,0,0,0-3.425,1.142C171.241,299.333,171.054,294.731,171.2,290.136Z" transform="translate(-171.044 -257.414)" fill="#29a9df"/>
      </g>
      <g id="_cfcfcfff" data-name="#cfcfcfff" transform="translate(10.386 105.685)">
        <path id="Path_114" data-name="Path 114" d="M53.92,161.186c7.527-.008,15.056-.029,22.584,0,.1,8.282-.025,16.564.083,24.843-2.991.065-5.984.006-8.976.021-3.733.006-7.464.066-11.2.079-.2-2.789-.649-5.568-.7-8.363a8.3,8.3,0,0,1,1.564-.755c6.154-2.691,12.356-5.279,18.483-8.028-7-.21-14.016.06-21.02-.2C54.39,166.258,54.049,163.731,53.92,161.186Z" transform="translate(-53.92 -161.171)" fill="#cfcfcf"/>
        <path id="Path_115" data-name="Path 115" d="M69.76,315.967c2.263-.035,4.526-.014,6.788-.027a4.986,4.986,0,0,1,1.395.133c.2,2.207.351,4.42.572,6.626,1.558.453,3.178.632,4.759.977,2.005.356,3.993.805,6.006,1.1.193,2.8-.144,5.613.177,8.4l-.233.046a4.319,4.319,0,0,1-1.238-.2c-3.417-.913-6.87-1.685-10.282-2.614-2.227-.607-4.461-1.177-6.691-1.759A126.147,126.147,0,0,1,69.76,315.967Z" transform="translate(-66.709 -286.13)" fill="#cfcfcf"/>
      </g>
      <g id="_ffffffff" data-name="#ffffffff" transform="translate(32.956 105.698)">
        <path id="Path_116" data-name="Path 116" d="M171.113,161.24c7.231.039,14.459-.012,21.688.046-.1,2.159-.381,4.3-.537,6.462a12.708,12.708,0,0,1-.243,2.04,7.559,7.559,0,0,1-1.543.8c-2.716,1.2-5.455,2.354-8.161,3.581-2.82,1.262-5.709,2.383-8.456,3.8.74.054,1.483.058,2.227.054,5.1-.021,10.21-.006,15.314-.033-.534,8.531-1.375,17.04-2.134,25.554-6,1.564-11.977,3.226-17.992,4.736-.322-2.787.015-5.6-.177-8.4a25.143,25.143,0,0,1,3.425-1.142c2.157-.647,4.33-1.238,6.47-1.938.185-3.569.482-7.132.676-10.7-3.492.023-6.984-.071-10.474-.012C171.088,177.8,171.212,169.522,171.113,161.24Z" transform="translate(-171.1 -161.24)" fill="#fff"/>
      </g>
    </g>
  </g>
</svg>
