<svg xmlns="http://www.w3.org/2000/svg" width="154" height="139.492" viewBox="0 0 154 139.492">
  <g id="Group_27" data-name="Group 27" transform="translate(-85 -143.758)">
    <g id="Group_32" data-name="Group 32" transform="translate(85 143.758)">
      <path id="Path_105" data-name="Path 105" d="M0,0H154V139.492H0Z" fill="#00a0d2"/>
      <path id="Path_106" data-name="Path 106" d="M24.827,4.656a18.26,18.26,0,0,1,12.4,4.832,3.012,3.012,0,0,0-3.262,3.085c-.135,4.4,5.263,5.339,2.355,14.193l-2.406,7.323-6.552-19.3c-.1-.3.017-.469.384-.469H29.6a.18.18,0,0,0,.175-.183v-1.1a.177.177,0,0,0-.175-.183q-5.262.23-10.462,0a.177.177,0,0,0-.175.183v1.1a.18.18,0,0,0,.175.183H21c.414,0,.53.138.628.405l2.692,7.363-4.05,12.229L13.61,14.708c-.083-.246.017-.389.254-.389h2.122a.179.179,0,0,0,.175-.183v-1.1a.177.177,0,0,0-.175-.183c-2.227.118-4.462.142-6.544.163A18.314,18.314,0,0,1,24.826,4.655h0Zm16.121,9.6a18.339,18.339,0,0,1-7.324,24.81L39.34,22.876a25.556,25.556,0,0,0,1.607-8.619h0Zm-9.984,26a18.4,18.4,0,0,1-11.467.267l5.647-16.182L30.964,40.26h0Zm-13.98-.7a18.341,18.341,0,0,1-8.839-24.17l8.84,24.17h0ZM24.827,2.936A20.049,20.049,0,1,1,4.778,22.984,20.051,20.051,0,0,1,24.827,2.936Zm0-1.267A21.316,21.316,0,1,1,3.51,22.985,21.319,21.319,0,0,1,24.827,1.668Z" transform="translate(51.686 46.621)" fill="#464342" fill-rule="evenodd"/>
    </g>
  </g>
</svg>
